<svg width="256" height="256" viewBox="0 0 256 256" fill="none" xmlns="http://www.w3.org/2000/svg">
  <defs>
    <linearGradient id="card" x1="46" y1="28" x2="214" y2="228" gradientUnits="userSpaceOnUse">
      <stop stop-color="#2A2A2A"/>
      <stop offset="1" stop-color="#111111"/>
    </linearGradient>
    <linearGradient id="gold" x1="72" y1="60" x2="182" y2="202" gradientUnits="userSpaceOnUse">
      <stop stop-color="#FFF7C8"/>
      <stop offset="0.42" stop-color="#FFE36F"/>
      <stop offset="1" stop-color="#D59C21"/>
    </linearGradient>
    <linearGradient id="goldSoft" x1="52" y1="140" x2="202" y2="64" gradientUnits="userSpaceOnUse">
      <stop stop-color="#E8B339"/>
      <stop offset="1" stop-color="#FFF0AA"/>
    </linearGradient>
    <filter id="glow" x="-20%" y="-20%" width="140%" height="140%">
      <feGaussianBlur stdDeviation="4.6" result="blur"/>
      <feMerge>
        <feMergeNode in="blur"/>
        <feMergeNode in="SourceGraphic"/>
      </feMerge>
    </filter>
  </defs>

  <rect x="28" y="28" width="200" height="200" rx="48" fill="url(#card)"/>

  <path d="M66 184H194" stroke="url(#gold)" stroke-width="3.5" stroke-linecap="round" opacity="0.92"/>
  <rect x="74" y="161" width="22" height="23" rx="3" fill="url(#gold)"/>
  <rect x="109" y="135" width="24" height="49" rx="3" fill="url(#gold)"/>
  <rect x="144" y="106" width="26" height="78" rx="3" fill="url(#gold)"/>
  <rect x="179" y="73" width="28" height="111" rx="3" fill="url(#gold)"/>

  <path
    d="M58 165C88 158 114 149 138 134C160 119 180 99 199 70L182 79L183.5 52.5L207 76L188.5 80.5C170.7 106 150.4 124.5 126 139.4C106.4 151.4 84 159.6 58 166.8V165Z"
    fill="url(#gold)"
    filter="url(#glow)"
  />
  <path
    d="M58 165C88 158 114 149 138 134C160 119 180 99 199 70"
    stroke="url(#goldSoft)"
    stroke-width="4.2"
    stroke-linecap="round"
    opacity="0.72"
  />

  <path d="M147 44L153 58L167 64L153 70L147 84L141 70L127 64L141 58L147 44Z" fill="url(#gold)" filter="url(#glow)"/>
  <path d="M188 89L192 98L201 102L192 106L188 115L184 106L175 102L184 98L188 89Z" fill="url(#gold)" filter="url(#glow)"/>
  <path d="M131 77L134 84.5L141.5 87.5L134 90.5L131 98L128 90.5L120.5 87.5L128 84.5L131 77Z" fill="url(#gold)" filter="url(#glow)"/>
</svg>
