<svg width="128" height="128" viewBox="0 0 128 128" fill="none" xmlns="http://www.w3.org/2000/svg">
  <defs>
    <linearGradient id="card" x1="24" y1="16" x2="108" y2="116" gradientUnits="userSpaceOnUse">
      <stop stop-color="#2A2A2A"/>
      <stop offset="1" stop-color="#111111"/>
    </linearGradient>
    <linearGradient id="gold" x1="38" y1="30" x2="92" y2="101" gradientUnits="userSpaceOnUse">
      <stop stop-color="#FFF7C8"/>
      <stop offset="0.42" stop-color="#FFE36F"/>
      <stop offset="1" stop-color="#D59C21"/>
    </linearGradient>
    <linearGradient id="goldSoft" x1="26" y1="70" x2="102" y2="32" gradientUnits="userSpaceOnUse">
      <stop stop-color="#E8B339"/>
      <stop offset="1" stop-color="#FFF0AA"/>
    </linearGradient>
    <filter id="glow" x="-20%" y="-20%" width="140%" height="140%">
      <feGaussianBlur stdDeviation="2.4" result="blur"/>
      <feMerge>
        <feMergeNode in="blur"/>
        <feMergeNode in="SourceGraphic"/>
      </feMerge>
    </filter>
  </defs>

  <rect x="14" y="14" width="100" height="100" rx="24" fill="url(#card)"/>

  <path d="M33 92.5H97" stroke="url(#gold)" stroke-width="1.8" stroke-linecap="round" opacity="0.92"/>
  <rect x="37" y="81" width="11" height="11" rx="1.5" fill="url(#gold)"/>
  <rect x="54" y="68" width="11" height="24" rx="1.5" fill="url(#gold)"/>
  <rect x="71" y="54" width="12" height="38" rx="1.5" fill="url(#gold)"/>
  <rect x="88" y="39" width="13" height="53" rx="1.5" fill="url(#gold)"/>

  <path
    d="M29 82.5C44 79 57 74 69 66.5C80 59.5 89.8 49.8 99.8 35.5L91 40.2L91.7 27L103.8 39.2L94.2 41.5C84.8 54.6 74.5 64.1 62.3 71.1C52.1 77 40.8 81 29 84.2V82.5Z"
    fill="url(#gold)"
    filter="url(#glow)"
  />
  <path
    d="M29 82.5C44 79 57 74 69 66.5C80 59.5 89.8 49.8 99.8 35.5"
    stroke="url(#goldSoft)"
    stroke-width="2.1"
    stroke-linecap="round"
    opacity="0.72"
  />

  <path d="M74 22L77.6 30.4L86 34L77.6 37.6L74 46L70.4 37.6L62 34L70.4 30.4L74 22Z" fill="url(#gold)" filter="url(#glow)"/>
  <path d="M97 49L99.6 55.4L106 58L99.6 60.6L97 67L94.4 60.6L88 58L94.4 55.4L97 49Z" fill="url(#gold)" filter="url(#glow)"/>
  <path d="M65 43L67.2 48.3L72.5 50.5L67.2 52.7L65 58L62.8 52.7L57.5 50.5L62.8 48.3L65 43Z" fill="url(#gold)" filter="url(#glow)"/>
</svg>
